<?xml version="1.0" encoding="UTF-8" standalone="no"?><!DOCTYPE svg PUBLIC "-//W3C//DTD SVG 1.1//EN" "http://www.w3.org/Graphics/SVG/1.1/DTD/svg11.dtd"><svg width="100%" height="100%" viewBox="0 0 980 980" version="1.1" xmlns="http://www.w3.org/2000/svg" xmlns:xlink="http://www.w3.org/1999/xlink" xml:space="preserve" xmlns:serif="http://www.serif.com/" style="fill-rule:evenodd;clip-rule:evenodd;stroke-linejoin:round;stroke-miterlimit:2;"><path d="M0,0l979.167,0l-0,979.167l-979.167,-0l0,-979.167Zm0,339.437c82.924,-0 150.147,67.223 150.147,150.146c-0,82.924 -67.223,150.147 -150.147,150.147l0,-300.293Z" style="fill:#aa4ff0;"/><g><g><path d="M520.833,675l-83.333,0l0,212.5l83.333,0l0,37.5l-116.666,0l-0,-287.5l116.666,0l0,37.5Zm270.834,0l83.333,0l0,212.5l-83.333,0l-0,37.5l116.666,0l0,-287.5l-116.666,0l-0,37.5Z" style="fill:#323330;"/><path d="M637.472,888.284l0,-88.808l-88.145,-0l-0,-37.114l88.145,-0l0,-88.146l37.556,0l-0,88.146l88.145,-0l0,37.114l-88.145,-0l-0,88.808l-37.556,-0Z" style="fill:#323330;fill-rule:nonzero;"/></g></g></svg>